<svg width="1539" height="247" viewBox="0 0 1539 247" fill="none" xmlns="http://www.w3.org/2000/svg">
<g clip-path="url(#clip0_1_11)">
<path d="M0 0H32.2V32.3H0V0ZM193.6 0H64.5V32.2H161.3V57.3L121 80.6C96 95 80.7 121.6 80.7 150.5V179L59.1 166.5C42.5 156.9 32.2 139.2 32.2 120V64.6H0V123C0 151.8 15.4 178.5 40.3 192.9L80.7 216.2L97.5 225.9L113 217L153.3 193.7C178.3 179.3 193.6 152.7 193.6 123.8V0ZM161.4 120.8C161.4 140 151.1 157.8 134.5 167.4L113 179.8V153.6C113 134.4 123.2 116.6 139.9 107L161.4 94.6V120.8Z" fill="#FF2D3C"/>
<path d="M712.7 32.4V129H685.3V117.7C679.3 124.6 670.3 128.8 658.1 128.8C634.2 128.8 614.4 107.8 614.4 80.6C614.4 53.4 634.2 32.4 658.1 32.4C670.3 32.4 679.3 36.6 685.3 43.5V32.4H712.7ZM685.3 80.7C685.3 67 676.2 58.4 663.5 58.4C650.8 58.4 641.8 67 641.8 80.7C641.8 94.4 650.9 103 663.5 103C676.1 103 685.3 94.4 685.3 80.7ZM606.3 32.4V63.7C594.9 61.9 578.7 66.5 578.7 84.7V129H551V32.4H578.7V50.6C582.3 38.3 594.7 32.4 606.3 32.4ZM1305.7 129.1L1277.4 90V129.1H1250.9V0.200012H1277.4V71.1L1303.9 32.4H1334.8L1302.6 79.2L1335.6 129H1305.7V129.1ZM1431.3 69V129.1H1404.8V72.9C1404.8 61.9 1397.9 56.8 1389.4 56.8C1379.7 56.8 1373 62.5 1373 75V129.1H1346.5V0.200012H1373.1V43.2C1377.9 36.7 1386.7 32.4 1398.4 32.4C1416.1 32.4 1431.3 45.2 1431.3 69ZM1442 80.7C1442 53.5 1463.6 32.5 1490.4 32.5C1517.2 32.5 1538.8 53.5 1538.8 80.7C1538.8 107.9 1517.2 128.9 1490.4 128.9C1463.6 128.9 1442 107.9 1442 80.7ZM1511.4 80.7C1511.4 67.7 1502.3 59.1 1490.4 59.1C1478.5 59.1 1469.4 67.7 1469.4 80.7C1469.4 93.7 1478.5 102.3 1490.4 102.3C1502.3 102.3 1511.5 93.7 1511.4 80.7Z" fill="white"/>
<path d="M1136.9 64.4C1136.9 100.9 1109.8 128.8 1074.3 128.8H1025.7V0H1074.3C1109.8 0 1136.9 28 1136.9 64.4ZM1109.4 64.4C1109.4 42.3 1095.4 27.8 1075.1 27.8H1053V101.1H1075.1C1095.4 101.1 1109.4 86.5 1109.4 64.4Z" fill="white"/>
<path d="M1195.9 104.4C1200.8 104.5 1205.6 103.1 1209.8 100.6L1235.5 110.1C1226.6 122.6 1213 129 1195.6 129C1164.4 129 1144.9 108 1144.9 80.7C1144.9 53.4 1164.7 32.4 1193.6 32.4C1220.3 32.4 1240.1 53.1 1240.1 80.7C1240.1 84.4 1239.8 88.1 1239 91.7H1174C1177.4 101.2 1185.8 104.4 1195.9 104.4ZM1212.7 71.1C1209.8 60.5 1201.5 56.6 1193.3 56.6C1182.9 56.6 1175.9 61.8 1173.3 71.1H1212.7Z" fill="white"/>
<path d="M970.7 104.5C975.6 104.6 980.4 103.2 984.6 100.7L1010.3 110.2C1001.4 122.7 987.8 129.1 970.4 129.1C939.1 129.1 919.7 108.1 919.7 80.8C919.7 53.5 939.5 32.5 968.4 32.5C995.1 32.5 1014.9 53.2 1014.9 80.8C1014.9 84.5 1014.5 88.2 1013.8 91.8H948.9C952.2 101.3 960.6 104.5 970.7 104.5ZM987.5 71.2C984.6 60.6 976.3 56.7 968.1 56.7C957.7 56.7 950.7 61.9 948.1 71.2H987.5Z" fill="white"/>
<path d="M255.3 0.200012V129.1H225.9V0.200012H255.3ZM356.5 71.4V129.1H328.3V75.5C328.3 63.8 321 58.4 311.9 58.4C301.6 58.4 294.4 64.4 294.4 77.8V129.1H266.2V32.4H294.4V43.9C299.5 36.9 308.9 32.4 321.3 32.4C340.3 32.4 356.5 46 356.5 71.4ZM813.7 71.4V129.1H785.5V75.5C785.5 63.8 778.2 58.4 769.1 58.4C758.8 58.4 751.6 64.4 751.6 77.8V129.1H723.4V32.4H751.6V43.9C756.7 36.9 766.1 32.4 778.5 32.4C797.5 32.4 813.7 46 813.7 71.4ZM442 99.1C442 120.1 423.7 129.1 403.9 129.1C385.6 129.1 371.7 122.1 364.5 107.3L388.3 93.7C390.7 100.7 395.8 104.5 403.9 104.5C410.5 104.5 413.8 102.5 413.8 98.8C413.8 88.7 368.8 94 368.8 62.4C368.8 42.4 385.6 32.4 404.7 32.4C419.5 32.4 432.7 39 440.4 52L416.9 64.6C414.3 59.8 410.7 56.5 404.6 56.5C399.8 56.5 396.9 58.3 396.9 61.6C396.9 72.2 442 65.2 442 99.1ZM540.3 32.4V129H512.1V117.5C507 124.5 497.6 129 485.2 129C466.2 129 450 115.5 450 90.1V32.4H478.2V86C478.2 97.7 485.5 103.1 494.6 103.1C505 103.1 512.1 97.1 512.1 83.7V32.4H540.3ZM821.7 80.8C821.7 53.5 842.4 32.5 870.2 32.5C888 32.5 903.7 41.8 911.6 55.9L887.6 69.8C884.5 63.4 877.9 59.6 869.8 59.6C857.9 59.6 849.1 68.2 849.1 80.8C849.1 93.4 858 102 869.9 102C877.9 102 884.7 98.2 887.7 91.8L911.7 105.5C903.8 119.8 888.3 129.1 870.3 129.1C842.4 129.1 821.7 108 821.7 80.8Z" fill="white"/>
</g>
<defs>
<clipPath id="clip0_1_11">
<rect width="1538.9" height="246.5" fill="white"/>
</clipPath>
</defs>
</svg>
