<svg width="206" height="50" viewBox="0 0 206 50" fill="none" xmlns="http://www.w3.org/2000/svg">
<path d="M7.27085 38.9463V40.3891H4.49743V49.7285H2.78841V40.3891H0V38.9463H7.27085Z" fill="#0C1014"/>
<path d="M24.9675 45.2449C24.9675 45.5656 24.9476 45.8552 24.9076 46.1137H18.5962C18.6462 46.7963 18.891 47.3445 19.3308 47.7582C19.7705 48.1719 20.3102 48.3788 20.9498 48.3788C21.8693 48.3788 22.5189 47.9806 22.8987 47.1842H24.7427C24.4928 47.9702 24.0381 48.6166 23.3785 49.1234C22.7288 49.6199 21.9193 49.8681 20.9498 49.8681C20.1603 49.8681 19.4507 49.6871 18.8211 49.3251C18.2014 48.9528 17.7117 48.4357 17.3519 47.7737C17.0021 47.1014 16.8272 46.3257 16.8272 45.4466C16.8272 44.5675 16.9971 43.797 17.3369 43.135C17.6867 42.4628 18.1714 41.9456 18.7911 41.5836C19.4207 41.2216 20.1403 41.0407 20.9498 41.0407C21.7294 41.0407 22.424 41.2165 23.0336 41.5681C23.6433 41.9198 24.118 42.4162 24.4578 43.0575C24.7976 43.6884 24.9675 44.4175 24.9675 45.2449ZM23.1836 44.6864C23.1736 44.0349 22.9487 43.5125 22.5089 43.1195C22.0692 42.7265 21.5245 42.53 20.8749 42.53C20.2852 42.53 19.7805 42.7265 19.3607 43.1195C18.941 43.5022 18.6911 44.0245 18.6112 44.6864H23.1836Z" fill="#0C1014"/>
<path d="M34.4749 45.4466C34.4749 44.5675 34.6448 43.797 34.9846 43.135C35.3344 42.4628 35.8142 41.9456 36.4238 41.5836C37.0335 41.2216 37.7331 41.0407 38.5226 41.0407C39.522 41.0407 40.3466 41.2889 40.9962 41.7853C41.6558 42.2714 42.1006 42.9696 42.3304 43.8797H40.4865C40.3366 43.4557 40.0967 43.1247 39.7669 42.8868C39.4371 42.6489 39.0223 42.53 38.5226 42.53C37.823 42.53 37.2633 42.7886 36.8436 43.3057C36.4338 43.8125 36.2289 44.5261 36.2289 45.4466C36.2289 46.3671 36.4338 47.0859 36.8436 47.6031C37.2633 48.1202 37.823 48.3788 38.5226 48.3788C39.5121 48.3788 40.1667 47.9289 40.4865 47.029H42.3304C42.0906 47.8978 41.6408 48.5908 40.9812 49.1079C40.3216 49.6147 39.5021 49.8681 38.5226 49.8681C37.7331 49.8681 37.0335 49.6871 36.4238 49.3251C35.8142 48.9528 35.3344 48.4357 34.9846 47.7737C34.6448 47.1014 34.4749 46.3257 34.4749 45.4466Z" fill="#0C1014"/>
<path d="M56.7014 41.0407C57.331 41.0407 57.8907 41.1803 58.3804 41.4595C58.8801 41.7388 59.2699 42.1525 59.5498 42.7006C59.8396 43.2488 59.9845 43.9107 59.9845 44.6864V49.7285H58.2905V44.9502C58.2905 44.1848 58.1056 43.6005 57.7358 43.1971C57.366 42.7834 56.8613 42.5765 56.2217 42.5765C55.582 42.5765 55.0723 42.7834 54.6925 43.1971C54.3227 43.6005 54.1378 44.1848 54.1378 44.9502V49.7285H52.4288V38.2481H54.1378V42.1732C54.4277 41.8112 54.7925 41.5319 55.2322 41.3354C55.682 41.1389 56.1717 41.0407 56.7014 41.0407Z" fill="#0C1014"/>
<path d="M86.2822 49.8371C85.5826 49.8371 84.953 49.713 84.3933 49.4647C83.8336 49.2062 83.3938 48.8442 83.074 48.3788C82.7542 47.9133 82.5943 47.3704 82.5943 46.7498H84.4233C84.4632 47.2152 84.6381 47.5979 84.948 47.8978C85.2678 48.1978 85.7125 48.3477 86.2822 48.3477C86.8719 48.3477 87.3316 48.2029 87.6614 47.9133C87.9912 47.6134 88.1561 47.2307 88.1561 46.7653C88.1561 46.4033 88.0512 46.1086 87.8413 45.881C87.6414 45.6535 87.3866 45.4777 87.0767 45.3535C86.7769 45.2294 86.3572 45.095 85.8175 44.9502C85.1379 44.764 84.5832 44.5778 84.1534 44.3917C83.7337 44.1952 83.3739 43.8952 83.074 43.4919C82.7742 43.0885 82.6243 42.5507 82.6243 41.8784C82.6243 41.2578 82.7742 40.7149 83.074 40.2494C83.3739 39.784 83.7936 39.4272 84.3333 39.179C84.873 38.9307 85.4976 38.8066 86.2072 38.8066C87.2167 38.8066 88.0412 39.0704 88.6808 39.5979C89.3305 40.115 89.6903 40.8286 89.7602 41.7388H87.8713C87.8413 41.3458 87.6614 41.0096 87.3316 40.7304C87.0018 40.4511 86.567 40.3115 86.0273 40.3115C85.5376 40.3115 85.1379 40.4408 84.828 40.6993C84.5182 40.9579 84.3633 41.3302 84.3633 41.8164C84.3633 42.1473 84.4582 42.4214 84.6481 42.6386C84.848 42.8454 85.0979 43.0109 85.3977 43.135C85.6975 43.2592 86.1073 43.3936 86.627 43.5384C87.3166 43.7349 87.8763 43.9314 88.306 44.1279C88.7458 44.3244 89.1156 44.6296 89.4154 45.0433C89.7252 45.4466 89.8801 45.9896 89.8801 46.6722C89.8801 47.2204 89.7352 47.7375 89.4454 48.2236C89.1655 48.7097 88.7508 49.1028 88.2011 49.4027C87.6614 49.6923 87.0218 49.8371 86.2822 49.8371Z" fill="#0C1014"/>
<path d="M107.863 45.2449C107.863 45.5656 107.843 45.8552 107.803 46.1137H101.491C101.541 46.7963 101.786 47.3445 102.226 47.7582C102.666 48.1719 103.205 48.3788 103.845 48.3788C104.764 48.3788 105.414 47.9806 105.794 47.1842H107.638C107.388 47.9702 106.933 48.6166 106.274 49.1234C105.624 49.6199 104.814 49.8681 103.845 49.8681C103.055 49.8681 102.346 49.6871 101.716 49.3251C101.096 48.9528 100.607 48.4357 100.247 47.7737C99.8972 47.1014 99.7223 46.3257 99.7223 45.4466C99.7223 44.5675 99.8922 43.797 100.232 43.135C100.582 42.4628 101.066 41.9456 101.686 41.5836C102.316 41.2216 103.035 41.0407 103.845 41.0407C104.624 41.0407 105.319 41.2165 105.929 41.5681C106.538 41.9198 107.013 42.4162 107.353 43.0575C107.693 43.6884 107.863 44.4175 107.863 45.2449ZM106.079 44.6864C106.069 44.0349 105.844 43.5125 105.404 43.1195C104.964 42.7265 104.42 42.53 103.77 42.53C103.18 42.53 102.676 42.7265 102.256 43.1195C101.836 43.5022 101.586 44.0245 101.506 44.6864H106.079Z" fill="#0C1014"/>
<path d="M119.649 42.4214C119.899 41.987 120.228 41.6509 120.638 41.413C121.058 41.1648 121.553 41.0407 122.122 41.0407V42.8713H121.688C121.018 42.8713 120.508 43.0471 120.158 43.3988C119.819 43.7504 119.649 44.3606 119.649 45.2294V49.7285H117.94V41.1803H119.649V42.4214Z" fill="#0C1014"/>
<path d="M135.282 48.1461L137.62 41.1803H139.434L136.286 49.7285H134.247L131.114 41.1803H132.943L135.282 48.1461Z" fill="#0C1014"/>
<path d="M149.991 40.0478C149.681 40.0478 149.421 39.9392 149.211 39.722C149.001 39.5048 148.896 39.2359 148.896 38.9152C148.896 38.5946 149.001 38.3257 149.211 38.1085C149.421 37.8913 149.681 37.7827 149.991 37.7827C150.291 37.7827 150.545 37.8913 150.755 38.1085C150.965 38.3257 151.07 38.5946 151.07 38.9152C151.07 39.2359 150.965 39.5048 150.755 39.722C150.545 39.9392 150.291 40.0478 149.991 40.0478ZM150.83 41.1803V49.7285H149.121V41.1803H150.83Z" fill="#0C1014"/>
<path d="M160.9 45.4466C160.9 44.5675 161.07 43.797 161.409 43.135C161.759 42.4628 162.239 41.9456 162.849 41.5836C163.458 41.2216 164.158 41.0407 164.947 41.0407C165.947 41.0407 166.771 41.2889 167.421 41.7853C168.081 42.2714 168.525 42.9696 168.755 43.8797H166.911C166.761 43.4557 166.521 43.1247 166.192 42.8868C165.862 42.6489 165.447 42.53 164.947 42.53C164.248 42.53 163.688 42.7886 163.268 43.3057C162.859 43.8125 162.654 44.5261 162.654 45.4466C162.654 46.3671 162.859 47.0859 163.268 47.6031C163.688 48.1202 164.248 48.3788 164.947 48.3788C165.937 48.3788 166.591 47.9289 166.911 47.029H168.755C168.515 47.8978 168.066 48.5908 167.406 49.1079C166.746 49.6147 165.927 49.8681 164.947 49.8681C164.158 49.8681 163.458 49.6871 162.849 49.3251C162.239 48.9528 161.759 48.4357 161.409 47.7737C161.07 47.1014 160.9 46.3257 160.9 45.4466Z" fill="#0C1014"/>
<path d="M186.424 45.2449C186.424 45.5656 186.404 45.8552 186.364 46.1137H180.053C180.103 46.7963 180.348 47.3445 180.787 47.7582C181.227 48.1719 181.767 48.3788 182.406 48.3788C183.326 48.3788 183.976 47.9806 184.355 47.1842H186.199C185.949 47.9702 185.495 48.6166 184.835 49.1234C184.185 49.6199 183.376 49.8681 182.406 49.8681C181.617 49.8681 180.907 49.6871 180.278 49.3251C179.658 48.9528 179.168 48.4357 178.809 47.7737C178.459 47.1014 178.284 46.3257 178.284 45.4466C178.284 44.5675 178.454 43.797 178.794 43.135C179.143 42.4628 179.628 41.9456 180.248 41.5836C180.877 41.2216 181.597 41.0407 182.406 41.0407C183.186 41.0407 183.881 41.2165 184.49 41.5681C185.1 41.9198 185.575 42.4162 185.914 43.0575C186.254 43.6884 186.424 44.4175 186.424 45.2449ZM184.64 44.6864C184.63 44.0349 184.405 43.5125 183.966 43.1195C183.526 42.7265 182.981 42.53 182.332 42.53C181.742 42.53 181.237 42.7265 180.817 43.1195C180.398 43.5022 180.148 44.0245 180.068 44.6864H184.64Z" fill="#0C1014"/>
<path d="M199.5 49.8681C198.85 49.8681 198.265 49.7492 197.746 49.5113C197.236 49.2631 196.831 48.9321 196.531 48.5184C196.231 48.0943 196.072 47.6238 196.052 47.1066H197.821C197.85 47.4686 198.015 47.7737 198.315 48.0219C198.625 48.2598 199.01 48.3788 199.47 48.3788C199.949 48.3788 200.319 48.2857 200.579 48.0995C200.849 47.903 200.984 47.6548 200.984 47.3548C200.984 47.0342 200.834 46.7963 200.534 46.6412C200.244 46.4861 199.779 46.3154 199.14 46.1292C198.52 45.9534 198.015 45.7828 197.626 45.6173C197.236 45.4518 196.896 45.1984 196.606 44.8571C196.326 44.5158 196.186 44.0659 196.186 43.5074C196.186 43.0523 196.316 42.6386 196.576 42.2663C196.836 41.8836 197.206 41.5836 197.686 41.3664C198.175 41.1492 198.735 41.0407 199.365 41.0407C200.304 41.0407 201.059 41.2889 201.628 41.7853C202.208 42.2714 202.518 42.9385 202.558 43.7866H200.849C200.819 43.4039 200.669 43.0988 200.399 42.8713C200.129 42.6438 199.764 42.53 199.305 42.53C198.855 42.53 198.51 42.6179 198.27 42.7937C198.03 42.9696 197.91 43.2023 197.91 43.4919C197.91 43.7194 197.99 43.9107 198.15 44.0659C198.31 44.221 198.505 44.3451 198.735 44.4382C198.965 44.521 199.305 44.6296 199.754 44.764C200.354 44.9295 200.844 45.1001 201.224 45.276C201.613 45.4415 201.948 45.6897 202.228 46.0206C202.508 46.3516 202.653 46.7912 202.663 47.3393C202.663 47.8254 202.533 48.2598 202.273 48.6425C202.013 49.0252 201.643 49.3251 201.164 49.5423C200.694 49.7595 200.139 49.8681 199.5 49.8681Z" fill="#0C1014"/>
<path d="M26.9597 0.13208V33.5993H22.3278L5.34954 9.0545H5.03966V33.5993H0V0.13208H4.66454L21.6591 24.7096H21.969V0.13208H26.9597Z" fill="black"/>
<path d="M70.7537 13.2216L62.6761 0.13208H56.7744L67.4732 16.8657L56.7085 33.5993H62.6431L70.7537 20.6896H71.0175L79.1281 33.5993H85.0627L74.4793 16.8657L84.9967 0.13208H79.0951L71.0175 13.2216H70.7537Z" fill="#28C0E7"/>
<path d="M74.4793 16.8657L71.0175 13.2216L71.432 12.5499L79.0951 0.13208H84.9967L74.8309 16.3064L74.4793 16.8657Z" fill="black"/>
<path d="M143.519 10.869C143.211 9.90396 142.797 9.03971 142.276 8.2762C141.767 7.50208 141.156 6.84462 140.445 6.3038C139.733 5.75237 138.921 5.3335 138.007 5.04718C137.105 4.76087 136.112 4.61771 135.028 4.61771C133.191 4.61771 131.535 5.0896 130.058 6.03339C128.582 6.97717 127.414 8.36104 126.554 10.185C125.704 11.9983 125.28 14.2199 125.28 16.8498C125.28 19.4903 125.71 21.7225 126.57 23.5464C127.43 25.3704 128.609 26.7542 130.106 27.698C131.604 28.6418 133.308 29.1137 135.22 29.1137C136.993 29.1137 138.538 28.7532 139.855 28.0321C141.183 27.311 142.207 26.2929 142.93 24.978C143.662 23.6525 144.022 22.144 144.022 20.3519L144.021 20.5401H135.968V16.4839H148.792V20.1902C148.792 22.9261 148.208 25.3014 147.039 27.3163C145.882 29.3205 144.278 30.8687 142.229 31.961C140.19 33.0532 137.853 33.5993 135.22 33.5993C132.267 33.5993 129.676 32.9207 127.446 31.5633C125.226 30.2059 123.495 28.2813 122.253 25.7892C121.01 23.2866 120.389 20.3174 120.389 16.8816C120.389 14.2836 120.75 11.9506 121.472 9.88276C122.195 7.81491 123.209 6.0599 124.515 4.61771C125.832 3.16492 127.377 2.05677 129.15 1.29325C130.935 0.519138 132.883 0.13208 134.997 0.13208C136.759 0.13208 138.4 0.391886 139.919 0.911498C141.448 1.43111 142.807 2.16811 143.997 3.1225C145.197 4.07689 146.19 5.21155 146.976 6.52649C147.762 7.83082 148.293 9.27831 148.569 10.869H143.519Z" fill="#28C0E7"/>
<path d="M153.44 0.13208H173.892V4.43501H153.44V0.13208Z" fill="#28C0E7"/>
<path d="M153.44 29.2964H173.892V33.5993H153.44V29.2964Z" fill="#28C0E7"/>
<path d="M153.44 14.4752H172.963V18.8976H153.44V14.4752Z" fill="#28C0E7"/>
<path d="M205.5 0.13208V33.5993H200.868L183.89 9.0545H183.58V33.5993H178.54V0.13208H183.205L200.199 24.7096H200.509V0.13208H205.5Z" fill="#28C0E7"/>
<path d="M89.7109 4.4789V0.13208H115.741V4.4789H105.247V33.5993H100.189V4.4789H89.7109Z" fill="black"/>
<path d="M31.6079 0.13208H52.0601V4.43501H31.6079V0.13208Z" fill="black"/>
<path d="M31.6079 29.2964H52.0601V33.5993H31.6079V29.2964Z" fill="black"/>
<path d="M31.6079 14.4752H51.1305V18.8976H31.6079V14.4752Z" fill="black"/>
</svg>
