<svg width="652" height="140" viewBox="0 0 652 140" fill="none" xmlns="http://www.w3.org/2000/svg">
<path fill-rule="evenodd" clip-rule="evenodd" d="M118.4 29.7996C112.9 24.9996 107.3 23.5996 100 23.5996C91.4 23.5996 80 27.3996 80 38.3996C80 49.1996 90.7 52.3996 99.6 53.0996C106.3 53.4996 109 54.7996 109 58.0996C109 61.5996 104.9 63.8996 100.4 63.7996C95.1 63.6996 87.4 60.8996 84.1 57.1996L78.3 65.5996C85.2 72.7996 92.7 74.0996 100.2 74.0996C113.7 74.0996 120.6 66.8996 120.6 58.4996C120.6 45.8996 109.3 43.8996 100.3 43.2996C94.2 42.8996 91.5 41.1996 91.5 38.0996C91.5 35.0996 94.6 33.3996 100.1 33.3996C104.6 33.3996 108.5 34.4996 111.8 37.5996L118.4 29.7996Z" fill="#F89522"/>
<path fill-rule="evenodd" clip-rule="evenodd" d="M133.7 12.8V25H124.9V35.1H133.7V55.6C133.7 67.4 140.4 73.3 150.7 72.9C154.3 72.8 157 72.2 160.4 70.9L157.1 60.9C155.4 61.8 153.3 62.3 151.4 62.3C147.7 62.3 145.3 60.1 145.3 55.6V35.1H158.5V25H145.4V11.5L133.7 12.8Z" fill="#F89522"/>
<path fill-rule="evenodd" clip-rule="evenodd" d="M188.7 34.2997C207.1 34.2997 207.1 62.9997 188.7 62.9997C180.9 62.9997 174.7 57.5997 174.7 48.5997C174.6 39.4997 180.9 34.2997 188.7 34.2997ZM202.7 31.4997C200 26.7997 194 23.7997 187.6 23.7997C173.8 23.6997 162.9 32.2997 162.9 48.5997C162.9 65.1997 173.3 73.8997 187.3 73.7997C192.6 73.6997 200 70.9997 202.7 65.3997L203.3 72.2997H214.4V24.8997H203.2L202.7 31.4997Z" fill="#F89522"/>
<path fill-rule="evenodd" clip-rule="evenodd" d="M221.8 24.8992V72.2992H233.5V47.2992C233.5 38.5992 239.2 35.2992 245.3 35.2992C249.1 35.2992 251.4 36.3992 253.8 38.3992L259.1 28.1992C256.5 25.5992 251.8 23.6992 246.9 23.6992C242.1 23.6992 237.2 24.5992 233.5 30.3992L232.6 24.8992H221.8Z" fill="#F89522"/>
<path fill-rule="evenodd" clip-rule="evenodd" d="M273.5 12.8V25H264.7V35.1H273.5V55.6C273.5 67.4 280.2 73.3 290.5 72.9C294.1 72.8 296.8 72.2 300.2 70.9L296.9 60.9C295.2 61.8 293.1 62.3 291.2 62.3C287.5 62.3 285.1 60.1 285.1 55.6V35.1H298.3V25H285.2V11.5L273.5 12.8Z" fill="#F89522"/>
<path fill-rule="evenodd" clip-rule="evenodd" d="M307 24.9004V49.8004C307 64.5004 315.3 73.1004 326.6 73.1004C333.2 73.1004 337.7 70.8004 342.7 66.0004L343.5 72.3004H354V24.9004H342.4V49.1004C342.4 56.4004 337.5 62.4004 330.3 62.4004C322.8 62.4004 318.9 56.9004 318.9 49.7004V24.9004H307Z" fill="#F89522"/>
<path fill-rule="evenodd" clip-rule="evenodd" d="M372.5 92.1008V66.7008C375.9 71.9008 383.3 73.4008 388.3 73.4008C403.5 73.4008 412.2 62.4008 412.2 48.6008C412.2 34.7008 402.5 23.8008 387.9 23.8008C382.5 23.8008 376.2 26.1008 372.5 31.4008L371.7 24.9008H360.7V92.1008H372.5ZM387 62.1008C379 62.1008 373.5 56.1008 373.5 48.6008C373.5 41.2008 378.5 35.1008 387 35.1008C395.5 35.1008 400.5 41.2008 400.5 48.6008C400.4 56.1008 394.9 62.1008 387 62.1008Z" fill="#F89522"/>
<path fill-rule="evenodd" clip-rule="evenodd" d="M417.5 11.6004C417.5 20.7004 431.3 20.7004 431.3 11.6004C431.4 2.50039 417.5 2.50039 417.5 11.6004ZM430.3 72.3004H418.6V24.7004H430.3V72.3004Z" fill="#F89522"/>
<path fill-rule="evenodd" clip-rule="evenodd" d="M484.4 72.2996V47.3996C484.4 32.4996 475.5 24.0996 464.3 24.0996C458.3 24.0996 453.5 26.4996 448.7 31.1996L447.9 24.7996H437.4V72.2996H449V48.0996C449 40.8996 453.9 34.7996 461.1 34.7996C468.6 34.7996 472.5 40.2996 472.5 47.4996V72.2996H484.4Z" fill="#F89522"/>
<path fill-rule="evenodd" clip-rule="evenodd" d="M530.1 5.10001V31.3C527.3 26.4 519.5 23.7 514.5 23.7C500.7 23.7 490.4 32.2 490.4 48.5C490.4 64.1 500.9 73.3 514.8 73.3C520.6 73.3 526.4 71.4 530.1 65.7L530.9 72.2H541.9V5H530.1V5.10001ZM515.6 34.7C523 34.7 529.3 40.3 529.3 48.5C529.3 57 523 62.4 515.6 62.4C508.1 62.4 502.1 56.7 502.1 48.5C502.2 40 508.1 34.7 515.6 34.7Z" fill="#F89522"/>
<path fill-rule="evenodd" clip-rule="evenodd" d="M550.5 11.6004C550.5 20.7004 564.3 20.7004 564.3 11.6004C564.3 2.50039 550.5 2.50039 550.5 11.6004Z" fill="#A4CD39"/>
<path d="M563.3 24.6992H551.6V72.2992H563.3V24.6992Z" fill="#3DC5F2"/>
<path fill-rule="evenodd" clip-rule="evenodd" d="M595.3 34.2997C613.7 34.2997 613.7 62.9997 595.3 62.9997C587.5 62.9997 581.3 57.5997 581.3 48.5997C581.3 39.4997 587.6 34.2997 595.3 34.2997ZM609.4 31.4997C606.7 26.7997 600.7 23.7997 594.3 23.7997C580.5 23.6997 569.6 32.2997 569.6 48.5997C569.6 65.1997 580 73.8997 594 73.7997C599.3 73.6997 606.7 70.9997 609.4 65.3997L610 72.2997H621V24.8997H609.8L609.4 31.4997Z" fill="#F89522"/>
<path d="M563.4 79.5996H507.4V91.0996H563.4V79.5996Z" fill="#A4CD39"/>
<path d="M518.6 79.6992H507.2V135.799H518.6V79.6992Z" fill="#A4CD39"/>
<path d="M518.6 124.301H462.8V135.801H518.6V124.301Z" fill="#A4CD39"/>
<path d="M48.9 17L45.9 28.9H54.6L57.6 17H68.2L65.3 29H71V38.2H63L59.3 52.7H65.6V62H57.2L54.6 72.8H43.8L46.4 62H37.6L35 72.8H24.4L27 62H21V52.7H29.4L33.1 38.1H26.5V29H35.3L38.2 17.1H48.9V17ZM43.2 37.5L39.2 53.3H49.2L53.2 37.5H43.2Z" fill="#F89522"/>
</svg>
