<svg width="20" height="20" viewBox="0 0 20 20" fill="none" xmlns="http://www.w3.org/2000/svg">
<path d="M10.0007 10.0002C9.08398 10.0002 8.29926 9.67377 7.64648 9.021C6.99371 8.36822 6.66732 7.5835 6.66732 6.66683C6.66732 5.75016 6.99371 4.96544 7.64648 4.31266C8.29926 3.65988 9.08398 3.3335 10.0007 3.3335C10.9173 3.3335 11.702 3.65988 12.3548 4.31266C13.0076 4.96544 13.334 5.75016 13.334 6.66683C13.334 7.5835 13.0076 8.36822 12.3548 9.021C11.702 9.67377 10.9173 10.0002 10.0007 10.0002ZM3.33398 16.6668V14.3335C3.33398 13.8613 3.45551 13.4272 3.69857 13.0314C3.94162 12.6356 4.26454 12.3335 4.66732 12.1252C5.52843 11.6946 6.40343 11.3717 7.29232 11.1564C8.18121 10.9411 9.08398 10.8335 10.0007 10.8335C10.9173 10.8335 11.8201 10.9411 12.709 11.1564C13.5979 11.3717 14.4729 11.6946 15.334 12.1252C15.7368 12.3335 16.0597 12.6356 16.3027 13.0314C16.5458 13.4272 16.6673 13.8613 16.6673 14.3335V16.6668H3.33398ZM5.00065 15.0002H15.0007V14.3335C15.0007 14.1807 14.9625 14.0418 14.8861 13.9168C14.8097 13.7918 14.709 13.6946 14.584 13.6252C13.834 13.2502 13.077 12.9689 12.3132 12.7814C11.5493 12.5939 10.7784 12.5002 10.0007 12.5002C9.22287 12.5002 8.45204 12.5939 7.68815 12.7814C6.92426 12.9689 6.16732 13.2502 5.41732 13.6252C5.29232 13.6946 5.19162 13.7918 5.11523 13.9168C5.03885 14.0418 5.00065 14.1807 5.00065 14.3335V15.0002ZM10.0007 8.3335C10.459 8.3335 10.8513 8.1703 11.1777 7.84391C11.5041 7.51752 11.6673 7.12516 11.6673 6.66683C11.6673 6.2085 11.5041 5.81613 11.1777 5.48975C10.8513 5.16336 10.459 5.00016 10.0007 5.00016C9.54232 5.00016 9.14996 5.16336 8.82357 5.48975C8.49718 5.81613 8.33398 6.2085 8.33398 6.66683C8.33398 7.12516 8.49718 7.51752 8.82357 7.84391C9.14996 8.1703 9.54232 8.3335 10.0007 8.3335Z" fill="#71717A"/>
</svg>
