<svg width="580" height="664" viewBox="0 0 580 664" fill="none" xmlns="http://www.w3.org/2000/svg">
<g clip-path="url(#clip0_3383_274)">
<path d="M0 7.99999C0 3.58172 3.58172 0 8 0H572C576.418 0 580 3.58172 580 8V656C580 660.418 576.418 664 572 664H8C3.58173 664 0 660.418 0 656V7.99999Z" fill="#007682"/>
<mask id="mask0_3383_274" style="mask-type:luminance" maskUnits="userSpaceOnUse" x="-456" y="-220" width="2090" height="1706">
<path d="M1633.32 664.008L-15.8633 -220L-456.002 601.113L1193.19 1485.12L1633.32 664.008Z" fill="white"/>
</mask>
<g mask="url(#mask0_3383_274)">
<path d="M312.458 -111.002C393.58 -96.9827 474.691 -49.9375 525.832 12.7538C577.109 75.5188 597.317 152.68 579.179 215.893C556.087 296.27 475.353 353.81 479.282 441.536C482.611 515.86 545.789 588.439 602.729 655.164C659.751 722.065 717.072 799.961 705.419 870.879C697.623 918.759 658.353 957.035 666.006 1007.78C673.878 1059.43 729.148 1106.5 786.596 1132.01C843.99 1157.62 905.237 1167.46 964.888 1184.9C1145.49 1237.44 1313.09 1363.75 1401.92 1514.56" stroke="#013440" stroke-opacity="0.1" stroke-miterlimit="10"/>
<path d="M304.351 -112.702C355.179 -103.559 405.893 -80.9992 448.33 -49.928C474.138 -31.0733 497.003 -9.03918 515.305 14.9087C527.423 30.9177 537.534 47.7008 545.528 64.8025C564.539 105.911 570.957 148.726 566.215 189.259C565.085 198.959 563.349 208.467 560.872 217.709C552.642 249.237 537.402 277.668 522.272 305.233C502.549 341.039 482.688 375.449 479.349 415.676C478.658 424.555 478.655 433.803 479.724 443.361C483.506 477.892 500.017 512.111 522.164 546.048C546.838 583.85 578.523 621.446 606.69 657.025C610.482 661.832 614.274 666.64 618.012 671.55C645.134 707.097 669.534 744.091 683.844 781.095C695.326 810.504 700.182 840.061 693.849 868.378C690.518 883.505 683.97 897.701 676.735 911.528C661.99 940.356 644.386 968.577 649.405 1003.11C656.043 1048.16 699.493 1089.55 748.281 1116.36C755.098 1120.15 761.942 1123.55 768.896 1126.75C825.602 1152.66 885.86 1163.68 944.3 1182.06C959.007 1186.64 973.576 1191.81 987.979 1197.28C1067.89 1228.09 1143.17 1273.46 1206.96 1327.74C1270.47 1381.87 1322.14 1444.58 1357.44 1509.75" stroke="#013E49" stroke-opacity="0.1" stroke-miterlimit="10"/>
<path d="M296.187 -114.305C347.455 -104.661 398.142 -81.0597 439.89 -49.0358C465.231 -29.6389 487.299 -7.10736 504.528 17.1906C516.014 33.3893 525.355 50.2882 532.305 67.3585C549.088 108.33 552.758 150.333 547.631 190.923C546.445 200.726 544.655 210.337 542.453 219.727C534.992 251.799 522.089 280.822 509.516 308.568C493.256 344.513 477.52 378.491 477.369 418.049C477.311 426.739 477.94 435.797 479.642 445.165C485.569 478.996 503.592 512.704 526.453 546.628C552.035 584.388 583.609 622.85 609.989 658.792C613.589 663.628 616.996 668.494 620.404 673.359C645.271 709.151 665.988 745.096 677.192 780.963C686.31 809.501 689.049 838.057 681.397 865.534C677.241 880.219 670.006 894.046 662.222 907.579C646.102 935.671 627.206 963.331 632.006 998.275C638.341 1042.9 681.819 1083.91 730.03 1110.81C736.709 1114.52 743.498 1118.03 750.452 1121.22C806.471 1147.42 865.738 1159.63 922.969 1178.95C937.373 1183.76 951.639 1189.16 965.685 1194.97C1043.69 1227.01 1116.53 1273.32 1176.36 1327.72C1235.97 1381.87 1282.19 1443.51 1312.38 1505.02" stroke="#014752" stroke-opacity="0.1" stroke-miterlimit="10"/>
<path d="M288.158 -115.836C339.811 -105.59 390.717 -81.0778 431.778 -48.1012C456.651 -28.1621 477.922 -5.13306 493.941 19.4414C504.657 35.7559 513.229 52.7708 519.271 69.8833C533.828 110.719 534.666 151.732 529.319 192.733C527.941 202.565 526.426 212.323 524.361 221.786C517.587 254.227 507.048 284.12 497.224 312.019C484.511 348.279 472.953 381.723 475.909 420.436C476.621 429.009 477.883 437.878 480.216 447.056C488.288 480.187 507.823 513.385 531.592 547.266C558.026 585.087 589.6 624.209 614.138 660.617C617.49 665.585 620.705 670.479 623.782 675.3C646.451 711.234 663.374 746.335 671.664 781.037C678.28 808.631 679.178 836.331 669.877 862.924C664.897 877.167 657.03 890.524 648.558 903.688C631.119 930.94 610.821 958.246 615.51 993.395C621.681 1037.66 664.994 1078.32 712.683 1105.2C719.362 1108.92 725.958 1112.45 732.72 1115.68C788.052 1142.17 846.384 1155.47 902.349 1175.82C916.451 1180.87 930.415 1186.5 944.158 1192.55C1020.27 1225.82 1090.61 1273.16 1146.72 1327.56C1202.57 1381.8 1243.21 1442.3 1268.15 1500.07" stroke="#02515B" stroke-opacity="0.1" stroke-miterlimit="10"/>
<path d="M279.995 -117.436C332.087 -106.69 383.158 -81.1645 423.339 -47.2062C447.744 -26.7249 468.162 -3.09579 483.219 21.6235C493.303 38.1276 500.912 55.2872 506.02 72.163C518.35 112.862 516.44 153.062 510.653 194.224C509.22 204.158 507.649 214.019 505.997 223.703C499.992 256.689 491.735 287.277 484.66 315.328C475.548 351.8 468.114 384.812 474.26 422.856C475.604 431.24 477.69 439.89 480.464 448.908C490.817 481.412 511.727 514.026 536.211 547.894C563.552 585.672 594.879 625.587 617.767 662.432C620.789 667.355 623.811 672.278 626.586 677.333C647 713.512 660.24 747.564 665.507 781.305C669.759 808.028 668.678 834.8 657.865 860.583C652.06 874.384 643.506 887.372 634.402 900.065C615.781 926.552 593.806 953.355 598.468 988.886C604.144 1032.76 647.677 1073 694.788 1099.97C701.275 1103.72 708.009 1107.33 714.633 1110.48C769.277 1137.26 826.619 1151.75 881.375 1173.04C895.119 1178.42 908.835 1184.19 922.139 1190.39C996.354 1224.89 1064.19 1273.27 1116.4 1327.69C1168.34 1381.96 1203.54 1441.39 1223.23 1495.41" stroke="#025B64" stroke-opacity="0.1" stroke-miterlimit="10"/>
<path d="M271.829 -119.036C324.361 -107.79 375.596 -81.2513 415.089 -46.3402C438.972 -25.2142 458.648 -1.1902 472.633 23.8792C482.029 40.6755 488.786 57.7748 492.987 74.6928C503.09 115.255 498.293 154.569 492.204 195.965C490.716 206.002 489.283 215.936 487.768 225.694C482.451 259.048 476.557 290.507 472.231 318.71C466.528 355.424 463.356 388.077 472.608 425.276C474.722 433.545 477.303 441.931 480.847 450.833C493.345 482.637 515.767 514.74 541.102 548.669C569.488 586.478 600.567 627.185 621.668 664.393C624.498 669.346 627.136 674.327 629.581 679.337C647.74 715.761 657.104 748.792 659.457 781.368C661.345 807.221 658.23 833.166 645.961 858.036C639.331 871.395 630.089 884.015 620.436 896.413C600.496 922.061 577.119 948.509 581.671 984.245C587.182 1027.76 630.55 1067.66 677.139 1094.61C683.625 1098.35 690.222 1101.89 696.737 1105.25C750.693 1132.32 807.045 1147.99 860.591 1170.22C874.032 1175.84 887.309 1181.77 900.447 1188.28C972.765 1224.01 1038.01 1273.25 1086.41 1327.87C1134.58 1382.23 1164.34 1440.59 1178.64 1490.8" stroke="#02646D" stroke-opacity="0.1" stroke-miterlimit="10"/>
<path d="M263.669 -120.636C316.641 -108.89 367.986 -81.2361 406.654 -45.4461C430.07 -23.7778 448.948 0.743611 461.861 26.1632C470.487 43.0754 476.475 60.2905 479.823 77.1481C487.507 117.603 480.071 155.899 473.624 197.631C472.081 207.771 470.648 217.705 469.353 227.713C464.806 261.612 461.111 293.589 459.617 322.121C457.515 359.047 458.466 391.269 470.908 427.799C473.654 435.877 477.005 444.148 481.044 452.787C495.686 483.891 519.62 515.483 545.671 549.398C574.909 587.268 605.933 628.738 625.247 666.31C627.829 671.394 630.274 676.404 632.389 681.369C648.35 717.936 653.975 750.02 653.359 781.533C652.746 806.441 647.789 831.531 633.871 855.518C626.416 868.434 616.487 880.686 606.202 892.613C584.942 917.422 560.164 943.514 564.55 979.559C569.704 1022.75 613.155 1062.16 659.166 1089.21C665.598 1093.05 672.058 1096.51 678.572 1099.87C731.704 1127.16 787.258 1143.99 839.539 1167.26C852.678 1173.11 865.597 1179.38 878.433 1186.13C948.853 1223.08 1011.6 1273.36 1056.09 1328C1100.36 1382.38 1124.67 1439.68 1133.73 1486.15" stroke="#026E77" stroke-opacity="0.1" stroke-miterlimit="10"/>
<path d="M255.692 -122.27C308.966 -110.098 360.613 -81.3569 398.456 -44.6878C421.404 -22.4774 439.485 2.54149 451.325 28.3112C459.319 45.4129 464.399 62.6703 466.703 79.4964C472.16 119.814 461.976 157.298 455.226 199.264C453.546 209.331 452.278 219.618 451.12 229.699C447.26 263.966 445.929 296.814 447.184 325.498C448.628 362.74 453.621 394.353 469.307 430.111C472.686 438 476.669 446.082 481.477 454.605C498.264 485.008 523.793 516.266 550.669 549.962C580.814 587.79 611.783 630.024 629.199 668.164C631.589 673.277 633.649 678.345 635.572 683.339C649.278 720.151 651.22 751.185 647.498 781.562C644.576 805.497 637.447 829.687 622.209 852.834C613.93 865.309 603.37 877.089 592.342 888.751C569.846 912.896 543.638 938.355 547.722 974.634C552.711 1017.48 595.997 1056.53 641.486 1083.56C647.78 1087.33 654.184 1090.89 660.644 1094.36C713.033 1122.04 767.652 1139.96 818.723 1164.16C831.56 1170.25 844.176 1176.75 856.572 1183.66C925.096 1221.84 985.34 1273.16 1025.98 1327.71C1066.49 1382.19 1085.22 1438.35 1089.16 1481.16" stroke="#027880" stroke-miterlimit="10"/>
<path d="M247.532 -123.869C301.246 -111.196 352.92 -81.5158 390.158 -43.7177C412.639 -20.9651 429.867 4.65391 440.745 30.5685C447.915 47.8887 452.225 65.262 453.676 82.0277C456.907 122.209 443.891 158.703 436.784 201.007C435.049 211.176 433.781 221.463 432.897 231.692C429.669 266.429 430.758 300.045 434.762 328.882C439.807 366.336 448.869 397.62 467.662 432.533C471.865 440.204 476.426 448.198 481.729 456.458C500.798 486.235 527.702 516.908 555.429 550.665C586.482 588.451 617.34 631.55 632.833 669.98C634.893 675.048 636.705 680.248 638.436 685.271C649.887 722.328 648.145 752.313 641.455 781.627C636.169 804.691 627.061 827.953 610.311 850.289C601.208 862.322 589.96 873.734 578.437 884.999C554.622 908.304 527.012 933.408 530.931 969.995C535.618 1012.41 578.931 1051.09 623.843 1078.2C630.137 1081.97 636.349 1085.56 642.671 1088.95C694.373 1116.93 748.002 1136.03 798.001 1161.25C810.535 1167.57 822.849 1174.3 834.942 1181.44C901.568 1220.86 959.173 1273.14 996.048 1327.79C1032.65 1382.29 1045.94 1437.37 1044.63 1476.45" stroke="#038189" stroke-opacity="0.1" stroke-miterlimit="10"/>
<path d="M239.362 -125.474C293.516 -112.302 345.354 -81.6086 381.767 -42.9314C403.78 -19.6367 420.211 6.47979 430.017 32.7445C436.554 50.2543 440.094 67.7435 440.556 84.3751C441.56 124.42 425.795 160.101 418.248 202.565C416.458 212.837 415.272 223.3 414.527 233.603C412.068 268.885 415.493 303.093 422.136 332.287C430.591 369.983 443.831 400.732 465.95 435.05C470.786 442.531 476.117 450.41 481.915 458.406C503.129 487.483 531.545 517.645 559.987 551.389C591.892 589.235 622.695 633.098 636.4 671.891C638.213 677.091 639.888 682.217 641.041 687.327C650.293 724.526 644.812 753.564 635.016 781.742C627.366 803.935 616.224 826.371 598.018 847.794C588.089 859.385 576.154 870.429 563.945 881.325C538.81 903.791 509.798 928.54 513.607 965.332C517.937 1007.42 561.415 1045.79 605.667 1072.82C611.769 1076.61 618.118 1080.28 624.248 1083.7C675.262 1111.97 727.956 1132.16 776.69 1158.41C788.921 1164.97 800.933 1171.93 812.724 1179.31C877.453 1219.95 932.61 1273.17 965.526 1327.94C998.223 1382.47 1006.2 1436.56 999.512 1471.82" stroke="#038B92" stroke-opacity="0.1" stroke-miterlimit="10"/>
<path d="M231.334 -127.004C285.927 -113.331 337.93 -81.6246 373.601 -41.892C395.146 -18.0551 410.78 8.55881 419.375 35.1C425.143 52.7257 427.913 70.3307 427.468 87.0046C426.245 126.913 407.594 161.708 399.745 204.406C397.899 214.78 396.714 225.244 396.243 235.694C394.471 271.344 400.26 306.423 409.652 335.769C421.708 373.678 439.073 403.995 464.244 437.571C469.849 444.936 475.73 452.448 482.243 460.432C505.601 488.808 535.529 518.459 564.879 552.161C597.691 589.965 628.383 634.693 640.302 673.85C641.922 679.078 643.212 684.263 644.173 689.402C651.033 726.772 642.006 754.834 629.241 781.949C619.282 803.169 605.969 824.705 586.251 845.318C575.498 856.467 562.876 867.142 550.034 877.568C523.58 899.195 493.221 923.486 496.81 960.688C500.975 1002.43 544.343 1040.34 588.018 1067.45C594.12 1071.25 600.277 1074.95 606.406 1078.36C656.733 1106.93 708.437 1128.3 755.961 1155.49C767.89 1162.28 779.599 1169.48 791.033 1177.2C853.919 1218.97 906.519 1273.32 935.532 1328.12C964.462 1382.73 966.863 1435.68 954.921 1467.2" stroke="#03959B" stroke-opacity="0.1" stroke-miterlimit="10"/>
<path d="M223.171 -128.602C278.204 -114.43 330.317 -81.607 365.217 -41.098C386.433 -16.6453 401.076 10.4951 408.71 37.1811C413.845 54.9964 415.653 72.7463 414.218 89.286C410.768 129.058 389.424 162.937 381.079 205.899C379.042 216.302 378.076 227.015 377.742 237.539C376.741 273.734 384.811 309.507 396.815 338.932C412.417 377.156 433.768 406.967 462.375 439.743C468.614 446.918 475.264 454.315 482.272 462.035C507.912 489.785 539.215 518.852 569.279 552.54C602.998 590.302 633.499 635.72 643.712 675.416C645.085 680.776 646.183 685.989 646.813 691.084C651.419 728.699 638.709 755.712 622.975 781.764C610.652 802.113 595.36 822.72 574.13 842.523C562.553 853.23 549.298 863.434 535.714 873.594C508.078 894.456 476.18 918.318 479.659 955.725C483.521 997.038 526.918 1034.57 570.015 1061.77C575.979 1065.49 582.081 1069.29 588.156 1072.81C637.796 1101.67 688.51 1124.23 734.823 1152.35C746.45 1159.38 757.801 1166.92 768.85 1174.69C829.701 1217.61 879.937 1273.08 905.101 1327.79C930.127 1382.43 927.086 1434.32 909.894 1462.1" stroke="#039EA4" stroke-opacity="0.1" stroke-miterlimit="10"/>
<path d="M215.008 -130.204C270.481 -115.532 322.758 -81.6962 356.916 -40.1319C377.609 -15.0343 391.51 12.5009 398.072 39.5371C402.382 57.5709 403.475 75.334 401.188 91.8134C395.456 131.551 371.28 164.441 362.826 207.608C360.733 218.114 359.767 228.827 359.654 239.601C359.339 276.165 369.773 312.808 384.526 342.385C403.593 380.749 429.205 410.201 460.864 442.234C467.735 449.22 475.155 456.501 482.795 464.032C510.58 491.081 543.395 519.637 574.311 553.386C608.883 591.209 639.328 637.389 647.754 677.449C648.934 682.838 649.647 688.109 649.948 693.159C652.355 730.917 635.851 757.085 617.066 781.898C602.379 801.377 585.108 821.055 562.421 839.945C550.019 850.21 536.077 860.046 521.999 869.808C492.988 889.933 459.743 913.337 463.057 951.053C466.7 992.116 509.986 1029.19 552.561 1056.37C558.471 1060.2 564.49 1063.83 570.509 1067.45C619.462 1096.59 669.186 1120.34 714.29 1149.41C725.614 1156.67 736.663 1164.44 747.409 1172.44C806.363 1216.6 853.959 1273.03 875.357 1327.84C896.617 1382.57 887.995 1433.31 865.554 1457.36" stroke="#03A8AD" stroke-opacity="0.1" stroke-miterlimit="10"/>
<path d="M206.901 -131.908C262.758 -116.633 315.255 -81.8867 348.588 -39.4433C368.813 -13.8036 381.917 14.2291 387.406 41.6154C391.084 59.8387 391.27 77.6441 388.076 94.1657C380.117 133.767 353.247 165.742 344.298 209.172C342.15 219.78 341.267 230.67 341.346 241.415C341.8 278.523 354.434 315.684 372.019 345.59C394.631 384.269 424.284 413.113 459.27 444.551C466.911 451.421 474.826 458.439 483.153 465.677C513.083 492.026 547.547 520.146 579.041 553.808C614.52 591.588 644.855 638.634 651.494 679.057C652.344 684.402 652.81 689.804 652.863 694.986C653.015 732.989 632.966 758.181 611.075 781.858C594.079 800.363 574.636 819.141 550.437 837.221C537.156 847.146 522.582 856.511 507.816 865.905C477.487 885.191 442.895 908.138 446.043 946.161C449.384 986.798 492.698 1023.49 534.695 1050.76C540.605 1054.59 546.432 1058.24 552.396 1061.97C600.606 1091.51 649.45 1116.24 693.289 1146.34C704.31 1153.84 715.057 1161.84 725.446 1170.19C782.503 1215.57 827.652 1272.93 845.09 1327.87C862.446 1382.62 848.382 1432.29 820.828 1452.67" stroke="#03B2B6" stroke-opacity="0.1" stroke-miterlimit="10"/>
<path d="M198.873 -133.436C255.033 -117.735 307.694 -81.9758 340.422 -38.4034C360.179 -12.2215 372.486 16.3087 376.903 44.0452C379.811 62.3844 379.227 80.3056 375.043 96.6931C364.858 136.158 335.102 167.246 325.85 210.911C323.51 221.548 322.764 232.511 323.062 243.506C324.204 280.982 339.202 319.015 359.536 349.073C385.749 387.965 419.472 416.479 457.564 447.072C465.837 453.752 474.522 460.654 483.482 467.703C515.556 493.351 551.533 520.96 583.934 554.58C620.32 592.318 650.544 640.23 655.396 681.017C655.999 686.493 656.327 691.822 655.996 697.061C653.949 735.207 630.16 759.452 605.163 781.992C585.803 799.626 564.326 817.579 538.671 834.745C524.565 844.229 509.304 853.225 493.906 862.149C462.395 880.668 426.263 903.186 429.247 941.518C432.422 981.802 475.572 1018.14 517.047 1045.4C522.819 1049.15 528.591 1052.91 534.418 1056.56C581.941 1086.39 629.794 1112.31 672.423 1143.35C683.087 1151.18 693.586 1159.32 703.535 1167.82C758.695 1214.43 801.342 1272.84 814.877 1327.79C828.466 1382.64 808.959 1431.25 776.018 1447.81" stroke="#04BBBF" stroke-opacity="0.1" stroke-miterlimit="10"/>
<path d="M190.708 -135.039C247.307 -118.838 300.078 -81.9627 332.036 -37.6138C351.326 -10.8897 362.78 18.2406 366.234 46.1219C368.455 64.7533 366.964 82.7168 361.928 99.0438C349.516 138.372 317.066 168.545 307.319 212.472C304.924 223.212 304.178 234.176 304.752 245.318C306.663 283.339 323.942 322.066 347.025 352.276C376.785 391.483 414.549 419.389 455.886 449.21C464.928 455.775 474.108 462.414 483.7 469.273C518.056 494.295 555.408 521.319 588.524 554.926C625.899 592.798 655.931 641.4 658.996 682.549C659.407 688.055 659.35 693.441 658.826 698.71C654.524 737.1 627.053 760.296 599.087 781.773C577.363 798.537 553.769 815.487 526.74 831.917C511.836 841.237 495.889 849.866 479.803 858.42C446.973 876.101 409.439 898.264 412.313 936.801C415.269 976.835 458.363 1012.62 499.261 1039.96C504.978 1043.82 510.75 1047.57 516.384 1051.25C563.082 1081.3 609.946 1108.41 651.502 1140.46C661.864 1148.52 672.06 1156.9 681.707 1165.63C734.969 1213.47 774.977 1272.84 784.8 1327.79C794.486 1382.66 769.535 1430.2 731.346 1443.02" stroke="#04C5C8" stroke-opacity="0.1" stroke-miterlimit="10"/>
<path d="M182.546 -136.639C239.585 -119.938 292.521 -82.0501 323.736 -36.6459C342.558 -9.37967 353.215 20.2481 355.597 48.4796C357.048 67.2269 354.925 85.3799 348.844 101.675C334.205 140.867 298.869 170.153 288.957 214.389C286.507 225.232 285.843 236.371 286.554 247.587C289.153 285.976 308.851 325.471 334.628 355.937C367.852 395.283 409.822 422.933 454.403 451.983C464.078 458.358 474.083 464.778 484.252 471.55C520.753 495.872 559.617 522.386 593.585 556.053C631.867 593.882 661.844 643.247 663.067 684.863C663.285 690.397 662.843 695.842 661.989 701.066C655.433 739.701 624.278 761.847 593.206 782.188C569.118 798.081 543.546 814.103 515.005 829.722C499.249 838.322 482.669 846.479 466.034 854.739C431.884 871.58 393.004 893.285 395.658 932.233C398.311 971.84 441.378 1007.35 481.754 1034.67C487.333 1038.45 493.05 1042.31 498.685 1045.99C544.695 1076.34 590.624 1104.52 630.915 1137.61C640.974 1145.91 650.868 1154.52 660.212 1163.49C711.577 1212.56 749.082 1272.97 755.14 1328.01C761.059 1382.98 730.583 1429.27 687.089 1438.46" stroke="#04CFD2" stroke-opacity="0.1" stroke-miterlimit="10"/>
<path d="M174.519 -138.166C231.998 -120.965 285.098 -82.0636 315.488 -35.7803C333.843 -7.97192 343.703 22.1533 344.875 50.6613C345.693 69.5981 342.663 87.7934 335.73 104.029C318.81 143.186 280.779 171.557 270.428 215.953C267.922 226.898 267.259 238.038 268.19 249.504C271.558 288.438 293.538 328.627 322.063 359.245C358.834 398.906 404.79 426.051 452.616 454.329C462.923 460.515 473.697 466.819 484.362 473.328C523.007 496.949 563.383 522.952 598.258 556.577C637.448 594.365 667.315 644.595 666.558 686.604C666.529 692.269 665.895 697.743 664.656 703.025C655.9 741.803 620.952 763.105 586.911 782.383C560.459 797.405 532.77 812.424 502.772 827.13C486.192 835.288 468.925 843.077 451.658 850.866C416.133 866.971 375.906 888.218 378.312 927.297C380.801 966.552 423.758 1001.6 463.501 1029.12C469.081 1032.9 474.606 1036.79 480.185 1040.57C525.508 1071.21 570.446 1100.58 609.665 1134.68C619.422 1143.22 628.958 1152.16 638 1161.37C687.468 1211.66 722.526 1273 724.624 1328.17C726.64 1383.16 690.721 1428.38 641.977 1433.83" stroke="#01B4B6" stroke-opacity="0.1" stroke-miterlimit="10"/>
<path d="M166.35 -139.769C224.269 -122.068 277.534 -82.1539 307.044 -34.8889C324.931 -6.53834 333.993 24.0844 334.148 52.8398C334.334 71.9662 330.342 90.3063 322.419 106.407C303.272 145.429 262.41 172.81 251.701 217.543C249.058 228.415 248.559 239.907 249.683 251.344C253.683 290.749 278.082 331.707 309.302 362.579C349.673 402.453 399.754 429.165 450.768 456.775C461.9 462.742 473.115 468.885 484.549 475.279C525.476 498.274 567.227 523.692 602.817 557.304C642.859 595.152 672.533 646.072 670.127 688.517C669.767 694.138 668.941 699.641 667.454 705.054C656.445 744.077 617.95 764.403 580.803 782.545C551.987 796.696 522.319 810.787 490.81 824.683C473.46 832.295 455.451 839.819 437.496 847.24C400.79 862.579 359.216 883.368 361.265 922.784C363.588 961.686 406.518 996.458 445.602 1023.88C451.126 1027.77 456.513 1031.58 462.093 1035.36C506.728 1066.29 550.677 1096.85 588.686 1131.89C598.277 1140.73 607.374 1149.84 615.975 1159.21C663.546 1210.73 696.102 1273.11 694.352 1328.19C692.601 1383.28 651.239 1427.44 597.246 1429.15" stroke="#00B4B5" stroke-opacity="0.1" stroke-miterlimit="10"/>
<path d="M158.241 -141.474C216.599 -123.273 269.974 -82.2427 298.851 -34.1277C316.216 -5.13231 324.48 25.9879 323.618 54.9908C322.979 74.3357 318.272 92.6891 309.442 108.832C288.068 147.717 244.458 174.286 233.309 219.18C230.611 230.154 230.112 241.646 231.593 253.406C236.418 293.253 263.043 335.008 296.875 365.959C340.655 406.075 394.996 432.429 449.173 459.091C460.937 464.868 472.922 470.896 484.851 477.026C527.922 499.32 571.323 524.302 607.628 557.9C648.577 595.706 678.141 647.492 673.947 690.3C673.396 695.951 672.184 701.511 670.368 706.88C657.104 746.148 614.926 765.424 574.673 782.429C543.548 795.607 511.708 808.798 478.824 821.958C460.65 829.128 442.008 836.181 423.504 843.307C385.479 857.806 342.503 878.241 344.442 917.862C346.545 956.515 389.42 990.728 427.927 1018.24C433.314 1022.05 438.701 1025.86 444.033 1029.78C487.926 1061.1 530.994 1092.64 567.738 1128.72C577.027 1137.8 585.821 1147.14 594.121 1156.74C639.794 1209.5 669.711 1272.84 664.194 1328.02C658.539 1383.12 611.735 1426.21 552.491 1424.19" stroke="#05ECED" stroke-opacity="0.1" stroke-miterlimit="10"/>
<path d="M150.079 -143.073C208.877 -124.373 262.278 -82.4031 290.413 -33.2327C307.31 -3.69515 314.777 27.9225 312.843 57.2756C311.572 76.8101 305.958 95.2056 296.275 111.289C272.674 150.037 226.233 175.616 214.864 220.921C212.111 231.997 211.695 243.666 213.368 255.397C218.825 295.715 247.787 338.062 284.45 369.342C331.831 409.67 390.159 435.518 447.525 461.511C460.059 467.173 472.538 472.937 485.237 478.951C530.454 500.546 575.366 525.016 612.386 558.601C654.243 596.365 683.751 648.914 677.716 692.189C676.916 697.97 675.512 703.56 673.366 708.884C657.903 748.294 611.931 766.726 568.764 782.566C535.276 794.873 501.457 807.135 466.924 819.411C447.925 826.14 428.734 832.897 409.405 839.581C370.06 853.242 325.737 873.219 327.456 913.25C329.257 951.476 372.105 985.411 410.089 1012.91C415.421 1016.82 420.808 1020.63 426.003 1024.48C469.208 1056.09 511.287 1088.82 546.821 1125.84C555.807 1135.15 564.299 1144.72 572.296 1154.55C616.071 1208.54 643.541 1272.82 634.065 1328.12C624.59 1383.42 572.26 1425.27 507.767 1419.5" stroke="#05F5F6" stroke-opacity="0.1" stroke-miterlimit="10"/>
<path d="M142.052 -144.603C201.152 -125.476 254.856 -82.4194 282.303 -32.2962C309.75 17.8269 310.034 73.7378 283.298 113.712C257.471 152.324 208.143 177.017 196.472 222.556C183.809 271.923 221.094 332.077 272.022 372.721C322.95 413.365 385.402 438.781 446.012 464.002C506.622 489.223 568.799 516.474 617.334 559.27C665.87 602.067 697.106 664.924 676.555 710.856C658.837 750.511 609.182 767.894 562.909 782.597C507.233 800.32 451.364 818.072 395.688 835.795C354.969 848.719 309.299 868.238 310.908 908.475C312.407 946.275 355.282 979.827 392.689 1007.41C451.423 1050.65 508.92 1097.2 550.716 1152.24C592.594 1207.45 617.562 1272.76 604.182 1328.09C590.803 1383.41 533.03 1424.19 463.287 1414.69" stroke="#05FFFF" stroke-opacity="0.1" stroke-miterlimit="10"/>
<path d="M175.256 -130.636C229.462 -108.319 275.11 -65.0873 295.74 -18.0897C316.316 29.0107 311.13 78.9511 280.795 116.731C251.972 152.68 201.737 177.416 188.361 222.833C174.048 271.978 209.024 333.139 259.65 374.678C308.928 415.098 370.363 440.101 429.461 465.833C490.868 492.539 553.511 521.889 603.118 565.657C651.241 608.233 683.138 669.858 663.768 715.895C647.095 755.581 598.347 773.582 552.404 788.33C497.498 805.937 442.372 823.294 387.465 840.902C347.021 853.972 301.846 873.889 303.455 914.126C305.036 952.102 347.554 985.992 385.043 1013.75C442.871 1056.37 499.625 1101.99 541.036 1156.43C582.448 1210.87 606.893 1275.5 593.569 1330.06C580.245 1384.63 523.544 1425.05 454.873 1416.52" stroke="#05F8F8" stroke-opacity="0.1" stroke-miterlimit="10"/>
<path d="M208.383 -116.842C257.557 -91.4091 295.206 -48.1057 308.964 -4.13083C322.722 39.844 312.013 83.9167 278.132 119.4C246.313 152.686 195.226 177.361 180.228 222.834C164.404 271.829 196.933 333.925 247.393 376.432C295.159 416.702 355.385 441.321 413.025 467.462C475.229 495.651 538.201 527.028 589.018 571.84C636.839 613.989 669.368 674.765 651.098 720.73C635.332 760.375 587.491 778.994 542.015 793.86C488.016 811.425 433.358 828.24 379.359 845.805C338.997 859.052 294.454 879.44 295.925 919.603C297.397 957.785 339.557 992.011 377.128 1019.95C433.994 1062.05 490.144 1106.82 530.951 1160.4C571.977 1214.24 595.681 1277.95 582.494 1331.92C569.308 1385.9 513.652 1425.7 446.053 1418.13" stroke="#05F1F2" stroke-opacity="0.1" stroke-miterlimit="10"/>
<path d="M241.641 -102.978C285.837 -74.5303 315.568 -30.9785 322.51 9.87084C329.589 50.7939 313.411 88.8962 275.737 122.214C241.06 152.911 188.653 177.407 172.225 222.907C154.559 271.707 184.834 334.709 235.073 378.287C281.191 418.334 340.426 442.819 396.472 469.293C459.418 499.07 522.774 532.37 574.855 578.124C622.319 619.95 655.591 679.67 638.421 725.564C623.699 765.24 576.628 784.404 531.619 799.389C478.472 817.014 424.474 833.258 371.244 850.707C331.02 864.028 287.109 884.886 288.58 925.049C289.997 963.333 331.937 997.97 369.536 1026.18C425.44 1067.78 480.985 1111.69 521.242 1164.32C561.802 1217.37 584.983 1280.41 571.852 1333.62C558.721 1386.83 504.137 1426.28 437.665 1419.59" stroke="#05E9EB" stroke-opacity="0.1" stroke-miterlimit="10"/>
<path d="M274.844 -89.0127C314.008 -57.449 335.739 -13.8252 335.947 24.075C336.209 61.8726 314.7 94.0781 273.287 125.128C235.945 153.207 182.356 177.598 164.251 223.256C144.936 271.832 172.955 335.74 222.975 380.389C267.635 420.183 325.551 444.489 380.332 471.343C444.074 502.604 507.76 537.93 561.05 584.729C608.157 626.231 641.979 684.925 626.046 730.822C612.369 770.529 566.204 790.311 521.663 805.414C469.424 822.997 415.893 838.699 363.571 856.106C323.429 869.603 280.205 890.83 281.676 930.993C283.175 969.453 324.566 1004.46 362.302 1032.74C417.188 1073.92 472.184 1116.88 511.837 1168.66C551.874 1221.04 574.534 1283.39 561.513 1335.74C548.492 1388.09 494.98 1427.18 429.58 1421.46" stroke="#04E2E4" stroke-opacity="0.1" stroke-miterlimit="10"/>
<path d="M308.105 -75.1475C342.376 -40.3937 356.024 3.1259 349.442 38.1796C342.942 72.749 316.184 99.2342 270.841 128.045C230.778 153.608 175.869 177.821 156.198 223.431C135.37 271.858 160.998 336.597 210.66 382.244C253.863 421.786 311.917 443.524 363.839 473.073C426.727 508.896 492.53 543.244 546.892 591.013C593.641 632.192 628.151 689.933 613.372 735.656C600.603 775.321 555.345 795.721 511.272 810.943C459.939 828.484 406.931 843.541 355.461 861.008C315.456 874.579 272.81 896.379 274.281 936.542C275.67 975.208 316.84 1010.62 354.659 1039.09C408.583 1079.75 462.975 1121.85 502.023 1172.78C541.593 1224.38 563.593 1285.98 550.847 1337.82C537.964 1389.58 485.497 1428.05 421.169 1423.3" stroke="#04DBDE" stroke-opacity="0.1" stroke-miterlimit="10"/>
<path d="M341.311 -61.1805C370.549 -23.3103 376.39 20.2524 362.799 52.2096C349.538 83.5509 317.531 104.316 268.45 130.859C225.858 153.878 169.492 177.837 148.199 223.504C125.722 271.707 149.095 337.351 198.536 384.069C240.145 423.285 297.265 444.786 347.482 474.875C410.699 512.725 477.299 548.556 532.87 597.37C579.317 638.123 614.514 694.911 600.781 740.665C589.001 780.464 544.568 801.307 500.906 816.75C450.481 834.248 397.94 848.763 347.515 866.261C307.593 880.008 265.634 902.177 266.967 942.267C268.301 981.035 309.114 1016.79 347.098 1045.6C400.06 1085.75 453.902 1126.9 492.428 1177.15C531.613 1228.15 553.009 1288.9 540.318 1339.97C527.627 1391.04 476.096 1429.09 413.032 1425.27" stroke="#04D4D7" stroke-opacity="0.1" stroke-miterlimit="10"/>
<path d="M374.43 -47.3931C398.691 -6.50904 396.67 37.1994 376.151 66.2364C356.265 94.4233 319.01 109.468 265.861 133.698C220.685 154.275 163 178.056 140.085 223.778C115.958 271.757 136.94 338.234 186.298 386.097C226.45 425.06 282.58 446.427 331.065 476.776C394.804 516.624 461.953 554.071 518.843 603.724C564.933 644.153 600.68 699.915 588.184 745.672C577.449 785.502 533.868 807.066 490.591 822.45C441.073 839.907 389.137 853.953 339.482 871.335C299.697 885.156 258.37 907.796 259.704 947.886C260.983 986.757 301.52 1023.02 339.504 1051.84C391.504 1091.47 444.604 1131.69 482.663 1181.16C521.382 1231.38 542.255 1291.46 529.564 1341.87C516.874 1392.28 466.525 1429.77 404.532 1426.93" stroke="#04CDD0" stroke-opacity="0.1" stroke-miterlimit="10"/>
<path d="M407.633 -33.4242C426.862 10.5763 417.033 54.3278 389.588 80.4446C363.215 105.551 320.711 114.875 263.356 136.719C215.735 154.928 156.648 178.354 131.973 224.057C106.335 271.887 124.924 339.195 173.87 388.158C212.564 426.869 267.458 448.233 314.458 478.712C378.636 520.38 446.609 559.59 504.571 610.215C550.304 650.32 586.794 705.026 575.397 750.712C565.569 790.5 523.033 812.756 480.086 828.185C431.42 845.702 380.007 859.103 331.259 876.444C291.694 890.515 250.861 913.552 252.25 953.539C253.556 992.689 293.654 1029.11 331.802 1058.28C382.841 1097.4 435.336 1136.77 472.846 1185.28C511.042 1234.83 531.448 1294.12 518.813 1343.77C506.178 1393.42 456.901 1430.56 395.98 1428.69" stroke="#04C5CA" stroke-opacity="0.1" stroke-miterlimit="10"/>
<path d="M440.897 -19.5602C455.095 27.5567 437.65 71.3223 403.086 94.5479C370.226 116.573 322.472 120.177 260.968 139.532C210.956 155.27 150.219 178.472 124.114 224.202C96.827 271.809 113.216 339.92 161.887 390.057C199.042 428.339 250.856 452.809 298.434 480.558C366.049 520.105 431.711 564.947 490.883 616.616C536.258 656.398 573.436 710.151 563.138 755.766C554.355 795.586 512.588 818.386 470.109 833.933C422.35 851.408 371.542 864.341 323.564 881.565C284.136 895.71 243.936 919.218 245.132 959.234C246.383 998.486 286.261 1035.32 324.299 1064.7C374.376 1103.3 426.267 1141.81 463.171 1189.48C501.038 1238.31 520.647 1296.79 508.15 1345.85C495.707 1394.8 447.42 1431.42 387.572 1430.52" stroke="#04BEC3" stroke-opacity="0.1" stroke-miterlimit="10"/>
<path d="M474.1 -5.59319C483.458 44.6112 458.233 88.6989 416.577 108.652C377.23 127.596 324.173 125.582 258.518 142.448C206.005 155.921 143.921 178.665 116.057 224.377C87.2577 271.834 101.255 340.777 149.568 391.911C185.321 429.838 235.787 454.511 281.881 482.389C350.128 523.728 416.284 570.289 476.72 622.9C521.738 662.358 559.521 714.982 550.461 760.599C542.722 800.45 501.725 823.795 459.713 839.461C412.862 856.894 362.521 869.284 315.45 886.467C276.105 900.787 236.592 924.664 237.788 964.679C238.984 1004.03 278.449 1041.31 316.762 1070.83C365.932 1108.81 417.218 1146.48 453.463 1193.39C490.808 1241.55 509.95 1299.25 497.508 1347.54C485.065 1395.84 437.906 1432 379.184 1431.97" stroke="#04B7BC" stroke-opacity="0.1" stroke-miterlimit="10"/>
<path d="M507.362 8.26957C511.688 61.5904 478.793 105.795 429.935 122.68C384.102 138.544 325.877 130.985 255.99 145.186C201.168 156.364 137.353 178.709 107.867 224.477C77.3629 271.812 89.2708 341.353 137.253 393.763C171.605 431.336 220.724 456.211 265.388 484.116C334.459 527.218 401.054 575.6 462.562 629.182C507.278 668.213 545.693 719.988 537.733 765.534C530.902 805.343 490.949 829.379 449.266 845.09C403.322 862.48 353.531 874.505 307.423 891.542C268.16 906.04 229.279 930.387 230.53 970.3C231.672 1009.76 270.917 1047.44 309.12 1077.17C357.327 1114.64 408.009 1151.45 443.787 1197.58C480.665 1244.96 499.285 1301.98 486.897 1349.52C474.51 1397.05 428.478 1432.76 370.828 1433.7" stroke="#03B0B6" stroke-opacity="0.1" stroke-miterlimit="10"/>
<path d="M540.426 22.1636C539.72 78.6009 499.1 123.025 443.233 136.813C390.857 149.699 327.466 136.597 253.346 148.132C196.023 157.045 130.861 178.932 99.753 224.755C67.7372 271.941 77.308 342.211 124.823 395.824C157.772 433.041 205.406 458.046 248.779 486.051C318.427 531.047 385.571 581.045 448.288 635.671C492.646 674.379 531.805 725.098 524.944 770.573C519.157 810.413 479.974 834.995 438.759 850.824C393.585 868.098 344.536 879.728 299.197 896.65C260.21 911.294 221.823 936.039 223.074 975.952C224.243 1015.69 263.186 1053.61 301.416 1083.61C348.662 1120.57 398.739 1156.53 433.968 1201.7C470.46 1248.48 488.476 1304.65 476.089 1351.52C463.895 1398.37 418.852 1433.55 362.274 1435.46" stroke="#03A9AF" stroke-opacity="0.1" stroke-miterlimit="10"/>
<path d="M573.69 36.0284C568.007 95.4795 519.744 140.299 456.731 150.918C397.813 160.825 329.256 142.178 250.957 150.946C191.271 157.667 124.57 179.126 91.7574 224.827C58.0921 271.79 65.4634 342.863 112.703 397.649C144.443 434.482 190.483 459.822 232.562 487.927C302.842 534.716 370.481 586.431 434.462 642C478.463 680.384 518.172 730.077 512.548 775.554C507.806 815.426 469.337 840.654 428.645 856.499C384.378 873.731 335.797 884.819 291.365 901.698C252.46 916.519 214.76 941.632 215.819 981.574C216.933 1021.41 255.463 1059.77 293.968 1089.93C340.252 1126.36 389.587 1161.4 424.349 1205.79C460.319 1251.9 477.73 1307.21 465.674 1353.47C453.479 1399.65 409.564 1434.38 354.113 1437.16" stroke="#03A2A8" stroke-opacity="0.1" stroke-miterlimit="10"/>
<path d="M606.952 49.8938C596.374 112.535 540.249 157.5 470.281 164.92C404.821 171.849 331.098 147.658 248.566 153.761C186.517 158.29 118.194 179.143 83.8415 225.077C48.6643 271.889 53.891 343.663 100.525 399.578C130.863 436.056 175.501 461.701 216.206 489.73C287.145 538.59 355.251 591.745 420.441 648.358C464.222 686.492 504.536 735.056 499.957 780.565C496.122 820.394 458.698 846.315 418.335 862.204C374.976 879.394 326.999 890.013 283.337 906.777C244.514 921.774 207.448 947.358 208.561 987.197C209.62 1027.14 247.93 1065.91 286.325 1096.27C331.702 1132.09 380.432 1166.27 414.534 1209.91C450.038 1255.24 466.872 1309.98 454.87 1355.47C442.869 1400.97 399.943 1435.17 345.564 1438.92" stroke="#039AA2" stroke-opacity="0.1" stroke-miterlimit="10"/>
<path d="M640.155 63.8602C624.545 129.618 560.695 174.802 483.718 179.125C411.716 183.077 332.771 153.444 246.117 156.676C181.649 159.116 111.841 179.438 75.7847 225.251C39.0955 271.914 42.2327 344.285 88.344 401.506C117.335 437.526 160.378 463.505 199.846 491.532C271.362 542.286 340.154 597.13 406.417 654.714C449.896 692.422 490.842 740.136 487.418 785.471C484.628 825.332 447.973 851.797 408.022 867.908C365.57 885.055 318.061 895.132 275.306 911.854C236.621 926.925 200.186 952.979 201.3 992.819C202.249 1032.97 240.256 1071.97 278.816 1102.68C323.23 1137.98 371.357 1171.31 404.854 1214.11C439.973 1258.83 456.203 1312.72 444.256 1357.45C432.31 1402.18 390.457 1436.03 337.149 1440.75" stroke="#03939B" stroke-opacity="0.1" stroke-miterlimit="10"/>
<path d="M673.41 77.7211C652.768 146.595 581.193 191.999 497.069 193.152C418.47 194.228 334.358 159.051 243.527 159.515C176.64 159.866 105.348 179.657 67.7245 225.422C29.3859 271.862 30.516 345.007 75.9671 403.459C103.749 439.095 145.142 465.511 183.291 493.359C255.328 546.111 324.67 602.571 392.389 661.068C435.51 698.452 477.007 745.139 474.82 790.477C473.074 830.369 437.189 857.379 397.706 873.608C356.161 890.714 309.257 900.322 267.41 917.001C228.944 932.322 193.059 958.671 194.035 998.437C195.066 1038.76 232.716 1078.1 271.166 1109.02C314.619 1143.8 362.14 1176.28 395.088 1218.12C429.74 1262.06 445.447 1315.28 433.556 1359.24C421.61 1403.31 380.939 1436.61 328.704 1442.3" stroke="#038C94" stroke-opacity="0.1" stroke-miterlimit="10"/>
<path d="M706.62 91.6921C681.001 163.58 601.59 209.409 510.567 207.26C425.427 205.357 336.231 164.813 241.139 162.333C171.834 160.594 99.1125 179.751 59.7295 225.498C19.8789 271.788 18.9194 345.531 63.8478 405.288C90.2827 440.467 130.081 467.217 166.938 495.165C239.442 550.017 309.443 607.888 378.371 667.429C421.135 704.49 463.374 750.122 462.287 795.388C461.449 835.238 426.47 862.866 387.455 879.214C346.679 896.203 300.518 905.417 259.44 921.98C221.057 937.477 185.804 964.298 186.781 1004.06C187.757 1044.49 224.994 1084.27 263.719 1115.33C306.264 1149.5 353.126 1181.23 385.607 1222.29C419.737 1265.56 434.84 1317.92 423.086 1361.3C411.333 1404.68 371.597 1437.55 320.488 1444.11" stroke="#03858E" stroke-opacity="0.1" stroke-miterlimit="10"/>
<path d="M739.744 105.483C709.093 180.488 621.958 226.536 523.925 221.29C432.243 216.41 337.77 170.527 238.556 165.176C166.832 161.348 92.6265 179.973 51.484 225.703C10.2038 272.019 7.07236 346.183 51.3405 407.172C76.5659 441.966 114.715 469.154 150.389 496.997C223.222 553.875 294.158 613.303 364.158 673.816C406.565 710.553 449.491 755.232 449.504 800.427C449.655 840.411 415.502 868.482 376.953 884.947C337.085 901.894 291.474 910.742 251.221 927.087C213.057 942.834 178.492 970.023 179.33 1009.71C180.196 1050.35 217.269 1090.43 255.884 1121.7C297.467 1155.36 343.725 1186.23 375.601 1226.44C409.401 1269 423.844 1320.61 412.146 1363.23C400.448 1405.84 361.839 1438.27 311.94 1445.87" stroke="#027E87" stroke-opacity="0.1" stroke-miterlimit="10"/>
<path d="M772.945 119.448C737.4 197.643 642.484 244.013 537.36 235.495C439.08 227.739 339.386 176.414 236.104 168.09C161.962 162.173 86.3268 180.164 43.5622 225.949C0.632679 272.042 -4.31346 346.951 39.2945 409.172C63.3654 443.48 99.6723 471.133 134.165 498.871C207.409 557.951 279.059 618.688 350.324 680.142C392.373 716.555 435.905 760.105 437.099 805.406C438.158 845.348 405.049 874.11 366.83 890.62C327.869 907.525 282.863 915.905 243.38 932.133C205.354 947.954 171.42 975.614 172.259 1015.31C173.07 1056.04 209.978 1096.44 248.565 1128.09C289.241 1161.12 334.757 1191.07 366.111 1230.6C399.389 1272.49 413.365 1323.32 401.667 1365.27C390.107 1407.3 352.488 1439.2 303.715 1447.67" stroke="#027680" stroke-opacity="0.3" stroke-miterlimit="10"/>
<path d="M806.203 133.311C765.681 214.519 662.847 261.137 550.714 249.522C445.892 238.788 340.922 182.125 233.517 170.93C156.763 162.953 79.8366 180.384 35.3677 226.048C-9.07389 271.991 -15.9171 347.468 26.8382 410.95C49.6996 444.874 84.2194 472.891 117.475 500.626C190.939 561.938 263.495 623.953 335.969 686.452C377.716 722.439 421.881 765.139 424.23 810.266C426.333 850.239 393.993 879.546 356.379 896.248C318.188 913.038 273.787 920.949 235.211 937.135C197.405 953.206 163.966 981.263 164.723 1020.78C165.616 1061.69 201.973 1102.45 240.836 1134.25C280.55 1166.77 325.461 1195.86 356.266 1234.44C389.077 1275.55 402.393 1325.63 390.888 1366.89C379.383 1408.16 342.891 1439.6 295.19 1449.05" stroke="#026F7A" stroke-opacity="0.1" stroke-miterlimit="10"/>
<path d="M839.413 147.281C793.859 231.606 683.3 278.444 564.212 263.63C452.712 249.844 342.602 187.916 231.129 173.748C151.902 163.784 73.4636 180.405 27.4551 226.3C-18.6359 272.02 -27.2387 348.14 14.7463 413.058C36.3983 446.598 69.1309 474.978 101.204 502.609C174.75 566.079 248.35 629.446 322.034 692.99C363.424 728.653 408.331 770.298 411.724 815.455C414.872 855.461 383.302 885.312 346.156 902.133C308.872 918.88 265.075 926.322 227.352 942.569C189.628 958.816 156.876 987.241 157.578 1026.86C158.416 1067.87 194.554 1109.05 233.306 1141.05C272.058 1173.05 316.364 1201.29 346.565 1239.02C378.991 1279.52 391.703 1328.75 380.335 1369.43C368.885 1409.94 333.521 1440.92 286.892 1451.34" stroke="#026873" stroke-opacity="0.1" stroke-miterlimit="10"/>
</g>
</g>
<defs>
<clipPath id="clip0_3383_274">
<path d="M0 7.99999C0 3.58172 3.58172 0 8 0H572C576.418 0 580 3.58172 580 8V656C580 660.418 576.418 664 572 664H8C3.58173 664 0 660.418 0 656V7.99999Z" fill="white"/>
</clipPath>
</defs>
</svg>
