<svg width="28" height="28" viewBox="0 0 28 28" fill="none" xmlns="http://www.w3.org/2000/svg">
<g clip-path="url(#clip0_3274_5443)">
<path d="M17.493 11.6666C17.528 11.6666 17.563 11.6724 17.619 11.6783C18.207 11.7366 18.6667 12.2441 18.6667 12.8333V19.8333C18.6667 20.4224 18.207 20.9299 17.5933 20.9906L17.5 20.9999H9.63083L8.974 21.5681L5.83333 24.2829V20.9999H3.5C2.86767 20.9999 2.33333 20.4656 2.33333 19.8333V12.8333C2.33333 12.2009 2.86767 11.6666 3.5 11.6666H17.493ZM17.5 9.33325H3.5C1.575 9.33325 0 10.9083 0 12.8333V19.8333C0 21.7583 1.575 23.3333 3.5 23.3333V26.8333C3.5 27.2883 3.76833 27.7083 4.17667 27.8949C4.34 27.9649 4.50333 27.9999 4.66667 27.9999C4.94667 27.9999 5.215 27.9066 5.425 27.7199L10.5 23.3333H17.5C17.6167 23.3333 17.745 23.3216 17.85 23.3099C19.6117 23.1349 21 21.6416 21 19.8333V12.8333C21 11.0249 19.6117 9.53159 17.85 9.35659C17.745 9.34492 17.6167 9.33325 17.5 9.33325Z" fill="white"/>
<path d="M28 3.5V10.5C28 12.425 26.425 14 24.5 14C23.8583 14 23.3333 13.475 23.3333 12.8333C23.3333 12.1917 23.8583 11.6667 24.5 11.6667C25.13 11.6667 25.6667 11.13 25.6667 10.5V3.5C25.6667 2.87 25.13 2.33333 24.5 2.33333H10.5C9.87 2.33333 9.33333 2.87 9.33333 3.5V5.83333C9.33333 6.475 8.80833 7 8.16667 7C7.525 7 7 6.475 7 5.83333V3.5C7 1.575 8.575 0 10.5 0H24.5C26.425 0 28 1.575 28 3.5Z" fill="white"/>
</g>
<defs>
<clipPath id="clip0_3274_5443">
<rect width="28" height="28" fill="white"/>
</clipPath>
</defs>
</svg>
