<svg width="28" height="28" viewBox="0 0 28 28" fill="none" xmlns="http://www.w3.org/2000/svg">
<path d="M20.1243 8.16675C20.1243 7.68349 19.7326 7.29175 19.2493 7.29175C18.7661 7.29175 18.3743 7.68349 18.3743 8.16675V9.62509H16.916C16.4328 9.62509 16.041 10.0168 16.041 10.5001C16.041 10.9833 16.4328 11.3751 16.916 11.3751H18.3743V12.8334C18.3743 13.3167 18.7661 13.7084 19.2493 13.7084C19.7326 13.7084 20.1243 13.3167 20.1243 12.8334V11.3751H21.5827C22.0659 11.3751 22.4577 10.9833 22.4577 10.5001C22.4577 10.0168 22.0659 9.62509 21.5827 9.62509H20.1243V8.16675Z" fill="#2ED1E2"/>
<path fill-rule="evenodd" clip-rule="evenodd" d="M26.5413 10.8706C26.5413 6.99095 24.8119 4.0948 22.1207 3.04105C19.6291 2.06541 16.6384 2.79537 13.9997 5.26557C11.3609 2.79537 8.37026 2.06541 5.87862 3.04106C3.1875 4.09482 1.45801 6.99097 1.45801 10.8706C1.45801 13.3415 2.77682 15.7731 4.41818 17.8665C6.07641 19.9814 8.1625 21.8751 9.90367 23.2881L10.0602 23.4151C11.4608 24.5534 12.472 25.3752 13.9997 25.3752C15.5273 25.3752 16.5386 24.5534 17.9392 23.4152L18.0957 23.2881C19.8369 21.8751 21.923 19.9814 23.5812 17.8665C25.2225 15.7731 26.5413 13.3415 26.5413 10.8706ZM14.6388 7.10094C17.1025 4.46594 19.657 3.95569 21.4827 4.67058C23.3124 5.38705 24.7913 7.48188 24.7913 10.8706C24.7913 12.7506 23.7655 14.7952 22.204 16.7867C20.6595 18.7567 18.6845 20.5566 16.993 21.9293C15.3683 23.2476 14.8431 23.6252 13.9997 23.6252C13.1563 23.6252 12.6311 23.2476 11.0064 21.9291C9.31487 20.5566 7.33994 18.7566 5.79534 16.7867C4.23387 14.7952 3.20801 12.7505 3.20801 10.8706C3.20801 7.48191 4.68694 5.38705 6.5167 4.67059C8.34241 3.95569 10.8968 4.46594 13.3606 7.10094C13.526 7.2779 13.7574 7.37834 13.9997 7.37834C14.242 7.37834 14.4733 7.2779 14.6388 7.10094Z" fill="#2ED1E2"/>
</svg>
