<svg width="28" height="28" viewBox="0 0 28 28" fill="none" xmlns="http://www.w3.org/2000/svg">
<path d="M11.6667 5.83333L14 3.5M9.33333 18.6667L18.6667 9.33333M14 24.5L16.3333 22.1667M19.25 22.1667C20.8608 22.1667 22.1667 20.8608 22.1667 19.25C22.1667 17.6392 20.8608 16.3333 19.25 16.3333C17.6392 16.3333 16.3333 17.6392 16.3333 19.25C16.3333 20.8608 17.6392 22.1667 19.25 22.1667ZM8.75 11.6667C10.3608 11.6667 11.6667 10.3608 11.6667 8.75C11.6667 7.13917 10.3608 5.83333 8.75 5.83333C7.13917 5.83333 5.83333 7.13917 5.83333 8.75C5.83333 10.3608 7.13917 11.6667 8.75 11.6667ZM6.41667 24.5C8.0275 24.5 9.33333 23.1942 9.33333 21.5833C9.33333 19.9725 8.0275 18.6667 6.41667 18.6667C4.80584 18.6667 3.5 19.9725 3.5 21.5833C3.5 23.1942 4.80584 24.5 6.41667 24.5ZM21.5833 9.33333C23.1942 9.33333 24.5 8.0275 24.5 6.41667C24.5 4.80584 23.1942 3.5 21.5833 3.5C19.9725 3.5 18.6667 4.80584 18.6667 6.41667C18.6667 8.0275 19.9725 9.33333 21.5833 9.33333Z" stroke="#2ED1E2" stroke-width="1.5" stroke-linecap="round" stroke-linejoin="round"/>
</svg>
