<svg width="28" height="28" viewBox="0 0 28 28" fill="none" xmlns="http://www.w3.org/2000/svg">
<path d="M14 13.7083C14.4832 13.7083 14.875 14.1 14.875 14.5833V15.4583H15.75C16.2332 15.4583 16.625 15.85 16.625 16.3333C16.625 16.8165 16.2332 17.2083 15.75 17.2083H14.875V18.0833C14.875 18.5665 14.4832 18.9583 14 18.9583C13.5168 18.9583 13.125 18.5665 13.125 18.0833V17.2083H12.25C11.7668 17.2083 11.375 16.8165 11.375 16.3333C11.375 15.85 11.7668 15.4583 12.25 15.4583H13.125V14.5833C13.125 14.1 13.5168 13.7083 14 13.7083Z" fill="white"/>
<path fill-rule="evenodd" clip-rule="evenodd" d="M13.9997 10.7915C10.9391 10.7915 8.45801 13.2727 8.45801 16.3332C8.45801 19.3938 10.9391 21.8748 13.9997 21.8748C17.0603 21.8748 19.5413 19.3938 19.5413 16.3332C19.5413 13.2727 17.0603 10.7915 13.9997 10.7915ZM10.208 16.3332C10.208 14.2391 11.9056 12.5415 13.9997 12.5415C16.0937 12.5415 17.7913 14.2391 17.7913 16.3332C17.7913 18.4272 16.0937 20.1248 13.9997 20.1248C11.9056 20.1248 10.208 18.4272 10.208 16.3332Z" fill="white"/>
<path fill-rule="evenodd" clip-rule="evenodd" d="M13.939 1.45825C12.8908 1.45822 12.0167 1.4582 11.3228 1.55148C10.5904 1.64996 9.92909 1.86657 9.39771 2.39796C8.86633 2.92934 8.64972 3.5906 8.55124 4.32303C8.48229 4.83589 8.46431 5.44719 8.45964 6.15447C7.70304 6.17875 7.02855 6.22299 6.42915 6.30358C5.06133 6.48748 3.95422 6.87495 3.08112 7.74804C2.20803 8.62113 1.82056 9.72824 1.63667 11.0961C1.45797 12.4252 1.45799 14.1234 1.45801 16.2675V16.3991C1.45799 18.5432 1.45797 20.2414 1.63667 21.5704C1.82056 22.9382 2.20803 24.0454 3.08112 24.9185C3.95422 25.7915 5.06133 26.179 6.42915 26.363C7.75822 26.5416 9.45644 26.5416 11.6005 26.5416H16.3988C18.5429 26.5416 20.2411 26.5416 21.5702 26.363C22.938 26.179 24.0451 25.7915 24.9183 24.9185C25.7913 24.0454 26.1787 22.9382 26.3627 21.5704C26.5413 20.2414 26.5413 18.5432 26.5413 16.3992V16.2675C26.5413 14.1235 26.5413 12.4252 26.3627 11.0961C26.1787 9.72824 25.7913 8.62113 24.9183 7.74804C24.0451 6.87495 22.938 6.48748 21.5702 6.30358C20.9707 6.22299 20.2963 6.17875 19.5397 6.15447C19.535 5.44719 19.5171 4.83589 19.4481 4.32303C19.3497 3.5906 19.133 2.92934 18.6016 2.39796C18.0703 1.86657 17.409 1.64996 16.6766 1.55148C15.9827 1.4582 15.1086 1.45822 14.0603 1.45825H13.939ZM17.7892 6.127C17.7843 5.46162 17.768 4.95971 17.7138 4.55622C17.6413 4.01784 17.5162 3.78743 17.3642 3.63539C17.2122 3.48335 16.9818 3.35826 16.4434 3.28588C15.8799 3.21012 15.1243 3.20825 13.9997 3.20825C12.875 3.20825 12.1195 3.21012 11.556 3.28588C11.0176 3.35826 10.7872 3.48335 10.6351 3.63539C10.4831 3.78743 10.358 4.01784 10.2856 4.55622C10.2314 4.95971 10.215 5.46162 10.2101 6.127C10.6513 6.12492 11.1144 6.12492 11.6005 6.12492H16.3988C16.885 6.12492 17.3481 6.12492 17.7892 6.127ZM4.31856 8.98548C4.8123 8.49174 5.48856 8.19579 6.66233 8.03797C7.86127 7.87679 9.44172 7.87492 11.6663 7.87492H16.333C18.5576 7.87492 20.1381 7.87679 21.3371 8.03797C22.5107 8.19579 23.1871 8.49174 23.6808 8.98548C24.1745 9.47923 24.4705 10.1555 24.6282 11.3292C24.7895 12.5282 24.7913 14.1087 24.7913 16.3333C24.7913 18.5579 24.7895 20.1383 24.6282 21.3373C24.4705 22.511 24.1745 23.1873 23.6808 23.681C23.1871 24.1748 22.5107 24.4708 21.3371 24.6285C20.1381 24.7897 18.5576 24.7916 16.333 24.7916H11.6663C9.44172 24.7916 7.86127 24.7897 6.66233 24.6285C5.48856 24.4708 4.8123 24.1748 4.31856 23.681C3.82481 23.1873 3.52888 22.511 3.37106 21.3373C3.20986 20.1383 3.20801 18.5579 3.20801 16.3333C3.20801 14.1087 3.20986 12.5282 3.37106 11.3292C3.52888 10.1555 3.82481 9.47923 4.31856 8.98548Z" fill="white"/>
</svg>
