<svg width="28" height="28" viewBox="0 0 28 28" fill="none" xmlns="http://www.w3.org/2000/svg">
<path d="M12.5933 12.7189C12.5953 12.2898 12.7374 11.8731 12.998 11.5322C13.3491 11.0802 13.7497 10.6688 14.1922 10.3057C14.5914 9.96239 14.9574 9.58223 15.2854 9.17029C15.4916 8.88092 15.5985 8.53245 15.5899 8.1772C15.5948 7.95969 15.5559 7.74342 15.4753 7.54132C15.3948 7.33921 15.2743 7.1554 15.1211 7.0009C14.9679 6.8464 14.7852 6.7244 14.5837 6.64212C14.3823 6.55985 14.1664 6.519 13.9489 6.52206C13.5146 6.51783 13.095 6.67845 12.7745 6.97145C12.4012 7.33115 12.129 7.78261 11.985 8.28065L10.2041 7.50359C10.4306 6.6364 10.931 5.86549 11.6308 5.30556C12.3213 4.78637 13.1672 4.516 14.0308 4.5384C14.6877 4.53156 15.3367 4.68225 15.9234 4.97784C16.4827 5.25867 16.955 5.68634 17.2898 6.21505C17.6292 6.7534 17.8051 7.37865 17.7962 8.01501C17.8034 8.58812 17.6491 9.15171 17.351 9.64121C16.9741 10.2172 16.5174 10.7368 15.9946 11.1846C15.5955 11.5232 15.22 11.8887 14.8708 12.2786C14.6705 12.508 14.5592 12.8017 14.5571 13.1062C14.5628 13.2928 14.5905 13.4781 14.6399 13.6582H12.8192C12.6772 13.365 12.6002 13.0446 12.5933 12.7189ZM13.8073 18.4854C13.5994 18.4907 13.3927 18.4536 13.1996 18.3763C13.0065 18.299 12.8312 18.1833 12.6843 18.0361C12.5349 17.8901 12.4173 17.7149 12.3388 17.5214C12.2604 17.3278 12.2227 17.1202 12.2283 16.9114C12.2234 16.7011 12.2613 16.492 12.3397 16.2968C12.4181 16.1016 12.5353 15.9244 12.6843 15.776C12.8298 15.6262 13.0046 15.508 13.1979 15.4288C13.3911 15.3497 13.5986 15.3112 13.8073 15.3158C14.0174 15.3114 14.2261 15.3497 14.4209 15.4285C14.6156 15.5073 14.7923 15.6249 14.9401 15.7742C15.0879 15.9235 15.2037 16.1013 15.2806 16.2968C15.3575 16.4923 15.3937 16.7014 15.3872 16.9114C15.3927 17.1201 15.3552 17.3277 15.2769 17.5212C15.1985 17.7147 15.0811 17.89 14.932 18.0361C14.7848 18.1832 14.6091 18.299 14.4158 18.3762C14.2225 18.4534 14.0155 18.4906 13.8073 18.4854Z" fill="#1EABB8"/>
<path d="M1.21986 27.9527C1.04076 27.9526 0.863893 27.9131 0.701798 27.8369C0.491255 27.7398 0.313117 27.5841 0.18867 27.3885C0.064224 27.1929 -0.00126696 26.9656 1.85681e-05 26.7337V3.00566C0.000894737 2.22193 0.312621 1.47051 0.866804 0.916327C1.42099 0.362144 2.17237 0.0504367 2.9561 0.0495605H25.0439C25.8277 0.0504367 26.5791 0.362144 27.1332 0.916327C27.6874 1.47051 27.9991 2.22193 28 3.00566V19.9013C27.9989 20.6849 27.6871 21.4361 27.1329 21.9901C26.5788 22.5441 25.8275 22.8557 25.0439 22.8566H8.51572C8.02051 22.8567 7.54106 23.0307 7.16098 23.3481L1.99695 27.668C1.77925 27.851 1.50423 27.9518 1.21986 27.9527ZM2.9561 1.7047C2.6112 1.70514 2.28056 1.84233 2.03668 2.08621C1.7928 2.33009 1.6556 2.66076 1.65516 3.00566V25.7952L6.09921 22.0787C6.77725 21.5125 7.63238 21.2021 8.51572 21.2014H25.0439C25.3888 21.2012 25.7194 21.0642 25.9633 20.8204C26.2072 20.5767 26.3444 20.2461 26.3449 19.9013V3.00566C26.3444 2.66076 26.2072 2.33009 25.9634 2.08621C25.7195 1.84233 25.3888 1.70514 25.0439 1.7047H2.9561Z" fill="#1EABB8"/>
</svg>
